<svg xmlns="http://www.w3.org/2000/svg" width="585" height="462" style="width:100%;height:100%;transform:translate3d(0,0,0);content-visibility:visible"><defs><clipPath id="a"><path d="M0 0h585v462H0z"/></clipPath></defs><g font-size="22" font-family="Shne" aria-label="M M M M M M M M M M M M M M M M M M M M M M M M M M M M M M M M M M M M M M M M M M M M M M M M M M M M M M M M M M M M M M M M M M M M M M M M M M M M M M M M M M M M M M M M M M M M M M M M M M M M M M M M M M M M M M M M M M M M M M M M M M M M M M M M M M M M M M M M M M M M M M M M M M M M M M M M M M M M M M M M M M M M M M M M M M M M M M M M M M M M M M M M M M M M M M M M M M M M M M M M M M M M M M M M M M M M M M M M M M M M M M M M M M M M M M M M M M M M M M M M M M M M M M M M M M M M M M M M M M M M M M M M M M M M M M M M M M" style="display:block" stroke-linejoin="round" clip-path="url(#a)"><g style="display:inherit"><g style="display:block"><path d="m272.64 44.296 4.875-13.094v13.094h1.972V28.388h-2.814L271.82 41.46l-4.83-13.072h-2.903v15.908h1.994V31.202l4.853 13.094h1.705z"/></g></g><g style="display:inherit"><g style="display:block"><path d="m365.832 44.296 4.875-13.094v13.094h1.972V28.388h-2.814l-4.852 13.072-4.83-13.072h-2.903v15.908h1.994V31.202l4.852 13.094h1.706z"/></g></g><g style="display:inherit"><g style="display:block"><path d="m389.13 44.296 4.875-13.094v13.094h1.972V28.388h-2.814L388.31 41.46l-4.83-13.072h-2.903v15.908h1.994V31.202l4.852 13.094h1.706z"/></g></g><g style="display:inherit"><g style="display:block"><path d="m435.726 44.296 4.875-13.094v13.094h1.972V28.388h-2.814l-4.852 13.072-4.83-13.072h-2.903v15.908h1.994V31.202l4.853 13.094h1.705z"/></g></g><g style="display:inherit"><g style="display:block"><path d="m575.514 44.296 4.875-13.094v13.094h1.972V28.388h-2.814l-4.852 13.072-4.83-13.072h-2.903v15.908h1.994V31.202l4.853 13.094h1.705z"/></g></g><g style="display:inherit"><g style="display:block"><path d="m109.554 71.696 4.875-13.094v13.094h1.972V55.788h-2.814l-4.852 13.072-4.83-13.072h-2.903v15.908h1.994V58.602l4.852 13.094h1.706z"/></g></g><g style="display:inherit"><g style="display:block"><path d="m132.852 71.696 4.875-13.094v13.094h1.972V55.788h-2.814l-4.852 13.072-4.83-13.072H124.3v15.908h1.994V58.602l4.853 13.094h1.705z"/></g></g><g style="display:inherit"><g style="display:block"><path d="m156.15 71.696 4.875-13.094v13.094h1.972V55.788h-2.814L155.33 68.86l-4.83-13.072h-2.903v15.908h1.994V58.602l4.852 13.094h1.706z"/></g></g><g style="display:inherit"><g style="display:block"><path d="m202.746 71.696 4.875-13.094v13.094h1.972V55.788h-2.814l-4.852 13.072-4.83-13.072h-2.903v15.908h1.994V58.602l4.852 13.094h1.706z"/></g></g><g style="display:inherit"><g style="display:block"><path d="m226.044 71.696 4.875-13.094v13.094h1.972V55.788h-2.814l-4.852 13.072-4.83-13.072h-2.903v15.908h1.994V58.602l4.852 13.094h1.706z"/></g></g><g style="display:inherit"><g style="display:block"><path d="m319.236 71.696 4.875-13.094v13.094h1.972V55.788h-2.814l-4.852 13.072-4.83-13.072h-2.903v15.908h1.994V58.602l4.852 13.094h1.706z"/></g></g><g style="display:inherit"><g style="display:block"><path d="m342.534 71.696 4.875-13.094v13.094h1.972V55.788h-2.814l-4.852 13.072-4.83-13.072h-2.903v15.908h1.994V58.602l4.853 13.094h1.705z"/></g></g><g style="display:inherit"><g style="display:block"><path d="m365.832 71.696 4.875-13.094v13.094h1.972V55.788h-2.814l-4.852 13.072-4.83-13.072h-2.903v15.908h1.994V58.602l4.853 13.094h1.705z"/></g></g><g style="display:inherit"><g style="display:block"><path d="m459.024 71.696 4.875-13.094v13.094h1.972V55.788h-2.814l-4.852 13.072-4.83-13.072h-2.903v15.908h1.994V58.602l4.853 13.094h1.705z"/></g></g><g style="display:inherit"><g style="display:block"><path d="m505.62 71.696 4.875-13.094v13.094h1.972V55.788h-2.814L504.8 68.86l-4.83-13.072h-2.903v15.908h1.994V58.602l4.852 13.094h1.706z"/></g></g><g style="display:inherit"><g style="display:block"><path d="m575.514 71.696 4.875-13.094v13.094h1.972V55.788h-2.814l-4.852 13.072-4.83-13.072h-2.903v15.908h1.994V58.602l4.853 13.094h1.705z"/></g></g><g style="display:inherit"><g style="display:block"><path d="m39.66 98.096 4.875-13.094v13.094h1.972V82.188h-2.814L38.84 95.26l-4.83-13.072h-2.903v15.908h1.994V85.002l4.853 13.094h1.705z"/></g></g><g style="display:inherit"><g style="display:block"><path d="m62.958 98.096 4.875-13.094v13.094h1.972V82.188H66.99L62.139 95.26l-4.83-13.072h-2.903v15.908H56.4V85.002l4.852 13.094h1.706z"/></g></g><g style="display:inherit"><g style="display:block"><path d="m86.256 98.096 4.875-13.094v13.094h1.972V82.188h-2.814L85.437 95.26l-4.83-13.072h-2.903v15.908h1.994V85.002l4.852 13.094h1.706z"/></g></g><g style="display:inherit"><g style="display:block"><path d="m109.554 98.096 4.875-13.094v13.094h1.972V82.188h-2.814l-4.852 13.072-4.83-13.072h-2.903v15.908h1.994V85.002l4.852 13.094h1.706z"/></g></g><g style="display:inherit"><g style="display:block"><path d="m179.448 98.096 4.875-13.094v13.094h1.972V82.188h-2.814l-4.852 13.072-4.83-13.072h-2.903v15.908h1.994V85.002l4.852 13.094h1.706z"/></g></g><g style="display:inherit"><g style="display:block"><path d="m226.044 98.096 4.875-13.094v13.094h1.972V82.188h-2.814l-4.852 13.072-4.83-13.072h-2.903v15.908h1.994V85.002l4.852 13.094h1.706z"/></g></g><g style="display:inherit"><g style="display:block"><path d="m295.938 98.096 4.875-13.094v13.094h1.972V82.188h-2.814l-4.852 13.072-4.83-13.072h-2.903v15.908h1.994V85.002l4.853 13.094h1.705z"/></g></g><g style="display:inherit"><g style="display:block"><path d="m319.236 98.096 4.875-13.094v13.094h1.972V82.188h-2.814l-4.852 13.072-4.83-13.072h-2.903v15.908h1.994V85.002l4.853 13.094h1.705z"/></g></g><g style="display:inherit"><g style="display:block"><path d="m342.534 98.096 4.875-13.094v13.094h1.972V82.188h-2.814l-4.852 13.072-4.83-13.072h-2.903v15.908h1.994V85.002l4.853 13.094h1.705z"/></g></g><g style="display:inherit"><g style="display:block" opacity=".21"><path d="m365.832 98.096 4.875-13.094v13.094h1.972V82.188h-2.814l-4.852 13.072-4.83-13.072h-2.903v15.908h1.994V85.002l4.852 13.094h1.706z"/></g></g><g style="display:inherit"><g style="display:block"><path d="m389.13 98.096 4.875-13.094v13.094h1.972V82.188h-2.814L388.31 95.26l-4.83-13.072h-2.903v15.908h1.994V85.002l4.852 13.094h1.706z"/></g></g><g style="display:inherit"><g style="display:block"><path d="m435.726 98.096 4.875-13.094v13.094h1.972V82.188h-2.814l-4.852 13.072-4.83-13.072h-2.903v15.908h1.994V85.002l4.852 13.094h1.706z"/></g></g><g style="display:inherit"><g style="display:block"><path d="m482.322 98.096 4.875-13.094v13.094h1.972V82.188h-2.814l-4.852 13.072-4.83-13.072h-2.903v15.908h1.994V85.002l4.853 13.094h1.705z"/></g></g><g style="display:inherit"><g style="display:block"><path d="m552.216 98.096 4.875-13.094v13.094h1.972V82.188h-2.814l-4.852 13.072-4.83-13.072h-2.903v15.908h1.994V85.002l4.853 13.094h1.705z"/></g></g><g style="display:inherit"><g style="display:block"><path d="m575.514 98.096 4.875-13.094v13.094h1.972V82.188h-2.814l-4.852 13.072-4.83-13.072h-2.903v15.908h1.994V85.002l4.853 13.094h1.705z"/></g></g><g style="display:inherit"><g style="display:block"><path d="m365.832 124.496 4.875-13.094v13.094h1.972v-15.908h-2.814l-4.852 13.072-4.83-13.072h-2.903v15.908h1.994v-13.094l4.852 13.094h1.706z"/></g></g><g style="display:inherit"><g style="display:block"><path d="m435.726 124.496 4.875-13.094v13.094h1.972v-15.908h-2.814l-4.852 13.072-4.83-13.072h-2.903v15.908h1.994v-13.094l4.852 13.094h1.706z"/></g></g><g style="display:inherit"><g style="display:block"><path d="m482.322 124.496 4.875-13.094v13.094h1.972v-15.908h-2.814l-4.852 13.072-4.83-13.072h-2.903v15.908h1.994v-13.094l4.853 13.094h1.705z"/></g></g><g style="display:inherit"><g style="display:block"><path d="m505.62 124.496 4.875-13.094v13.094h1.972v-15.908h-2.814L504.8 121.66l-4.83-13.072h-2.903v15.908h1.994v-13.094l4.852 13.094h1.706z"/></g></g><g style="display:inherit"><g style="display:block"><path d="m552.216 124.496 4.875-13.094v13.094h1.972v-15.908h-2.814l-4.852 13.072-4.83-13.072h-2.903v15.908h1.994v-13.094l4.853 13.094h1.705z"/></g></g><g style="display:inherit"><g style="display:block"><path d="m272.64 150.896 4.875-13.094v13.094h1.972v-15.908h-2.814l-4.852 13.072-4.83-13.072h-2.903v15.908h1.994v-13.094l4.852 13.094h1.706z"/></g></g><g style="display:inherit"><g style="display:block"><path d="m435.726 150.896 4.875-13.094v13.094h1.972v-15.908h-2.814l-4.852 13.072-4.83-13.072h-2.903v15.908h1.994v-13.094l4.852 13.094h1.706z"/></g></g><g style="display:inherit"><g style="display:block"><path d="m459.024 150.896 4.875-13.094v13.094h1.972v-15.908h-2.814l-4.852 13.072-4.83-13.072h-2.903v15.908h1.994v-13.094l4.853 13.094h1.705z"/></g></g><g style="display:inherit"><g style="display:block"><path d="m482.322 150.896 4.875-13.094v13.094h1.972v-15.908h-2.814l-4.852 13.072-4.83-13.072h-2.903v15.908h1.994v-13.094l4.853 13.094h1.705z"/></g></g><g style="display:inherit"><g style="display:block"><path d="m575.514 150.896 4.875-13.094v13.094h1.972v-15.908h-2.814l-4.852 13.072-4.83-13.072h-2.903v15.908h1.994v-13.094l4.853 13.094h1.705z"/></g></g><g style="display:inherit"><g style="display:block"><path d="m132.852 177.296 4.875-13.094v13.094h1.972v-15.908h-2.814l-4.852 13.072-4.83-13.072H124.3v15.908h1.994v-13.094l4.853 13.094h1.705z"/></g></g><g style="display:inherit"><g style="display:block"><path d="m156.15 177.296 4.875-13.094v13.094h1.972v-15.908h-2.814l-4.852 13.072-4.83-13.072h-2.903v15.908h1.994v-13.094l4.852 13.094h1.706z"/></g></g><g style="display:inherit"><g style="display:block"><path d="m435.726 177.296 4.875-13.094v13.094h1.972v-15.908h-2.814l-4.852 13.072-4.83-13.072h-2.903v15.908h1.994v-13.094l4.853 13.094h1.705z"/></g></g><g style="display:inherit"><g style="display:block"><path d="m459.024 177.296 4.875-13.094v13.094h1.972v-15.908h-2.814l-4.852 13.072-4.83-13.072h-2.903v15.908h1.994v-13.094l4.853 13.094h1.705z"/></g></g><g style="display:inherit"><g style="display:block"><path d="m552.216 177.296 4.875-13.094v13.094h1.972v-15.908h-2.814l-4.852 13.072-4.83-13.072h-2.903v15.908h1.994v-13.094l4.852 13.094h1.706z"/></g></g><g style="display:inherit"><g style="display:block"><path d="m575.514 177.296 4.875-13.094v13.094h1.972v-15.908h-2.814l-4.852 13.072-4.83-13.072h-2.903v15.908h1.994v-13.094l4.853 13.094h1.705z"/></g></g><g style="display:inherit"><g style="display:block"><path d="m295.938 203.696 4.875-13.094v13.094h1.972v-15.908h-2.814l-4.852 13.072-4.83-13.072h-2.903v15.908h1.994v-13.094l4.853 13.094h1.705z"/></g></g><g style="display:inherit"><g style="display:block"><path d="m319.236 203.696 4.875-13.094v13.094h1.972v-15.908h-2.814l-4.852 13.072-4.83-13.072h-2.903v15.908h1.994v-13.094l4.853 13.094h1.705z"/></g></g><g style="display:inherit"><g style="display:block"><path d="m365.832 203.696 4.875-13.094v13.094h1.972v-15.908h-2.814l-4.852 13.072-4.83-13.072h-2.903v15.908h1.994v-13.094l4.852 13.094h1.706z"/></g></g><g style="display:inherit"><g style="display:block"><path d="m435.726 203.696 4.875-13.094v13.094h1.972v-15.908h-2.814l-4.852 13.072-4.83-13.072h-2.903v15.908h1.994v-13.094l4.853 13.094h1.705z"/></g></g><g style="display:inherit"><g style="display:block"><path d="m459.024 203.696 4.875-13.094v13.094h1.972v-15.908h-2.814l-4.852 13.072-4.83-13.072h-2.903v15.908h1.994v-13.094l4.852 13.094h1.706z"/></g></g><g style="display:inherit"><g style="display:block"><path d="m482.322 203.696 4.875-13.094v13.094h1.972v-15.908h-2.814l-4.852 13.072-4.83-13.072h-2.903v15.908h1.994v-13.094l4.852 13.094h1.706z"/></g></g><g style="display:inherit"><g style="display:block"><path d="m505.62 203.696 4.875-13.094v13.094h1.972v-15.908h-2.814L504.8 200.86l-4.83-13.072h-2.903v15.908h1.994v-13.094l4.852 13.094h1.706z"/></g></g><g style="display:inherit"><g style="display:block"><path d="m552.216 203.696 4.875-13.094v13.094h1.972v-15.908h-2.814l-4.852 13.072-4.83-13.072h-2.903v15.908h1.994v-13.094l4.852 13.094h1.706z"/></g></g><g style="display:inherit"><g style="display:block"><path d="m202.746 230.096 4.875-13.094v13.094h1.972v-15.908h-2.814l-4.852 13.072-4.83-13.072h-2.903v15.908h1.994v-13.094l4.852 13.094h1.706z"/></g></g><g style="display:inherit"><g style="display:block"><path d="m226.044 230.096 4.875-13.094v13.094h1.972v-15.908h-2.814l-4.852 13.072-4.83-13.072h-2.903v15.908h1.994v-13.094l4.852 13.094h1.706z"/></g></g><g style="display:inherit"><g style="display:block"><path d="m365.832 230.096 4.875-13.094v13.094h1.972v-15.908h-2.814l-4.852 13.072-4.83-13.072h-2.903v15.908h1.994v-13.094l4.852 13.094h1.706z"/></g></g><g style="display:inherit"><g style="display:block"><path d="m412.428 230.096 4.875-13.094v13.094h1.972v-15.908h-2.814l-4.852 13.072-4.83-13.072h-2.903v15.908h1.994v-13.094l4.852 13.094h1.706z"/></g></g><g style="display:inherit"><g style="display:block"><path d="m505.62 230.096 4.875-13.094v13.094h1.972v-15.908h-2.814L504.8 227.26l-4.83-13.072h-2.903v15.908h1.994v-13.094l4.853 13.094h1.705z"/></g></g><g style="display:inherit"><g style="display:block"><path d="m528.918 230.096 4.875-13.094v13.094h1.972v-15.908h-2.814l-4.852 13.072-4.83-13.072h-2.903v15.908h1.994v-13.094l4.853 13.094h1.705z"/></g></g><g style="display:inherit"><g style="display:block"><path d="m156.15 256.496 4.875-13.094v13.094h1.972v-15.908h-2.814l-4.852 13.072-4.83-13.072h-2.903v15.908h1.994v-13.094l4.852 13.094h1.706z"/></g></g><g style="display:inherit"><g style="display:block"><path d="m179.448 256.496 4.875-13.094v13.094h1.972v-15.908h-2.814l-4.852 13.072-4.83-13.072h-2.903v15.908h1.994v-13.094l4.852 13.094h1.706z"/></g></g><g style="display:inherit"><g style="display:block"><path d="m202.746 256.496 4.875-13.094v13.094h1.972v-15.908h-2.814l-4.852 13.072-4.83-13.072h-2.903v15.908h1.994v-13.094l4.852 13.094h1.706z"/></g></g><g style="display:inherit"><g style="display:block"><path d="m365.832 256.496 4.875-13.094v13.094h1.972v-15.908h-2.814l-4.852 13.072-4.83-13.072h-2.903v15.908h1.994v-13.094l4.852 13.094h1.706z"/></g></g><g style="display:inherit"><g style="display:block"><path d="m389.13 256.496 4.875-13.094v13.094h1.972v-15.908h-2.814l-4.852 13.072-4.83-13.072h-2.903v15.908h1.994v-13.094l4.852 13.094h1.706z"/></g></g><g style="display:inherit"><g style="display:block"><path d="m156.15 282.896 4.875-13.094v13.094h1.972v-15.908h-2.814l-4.852 13.072-4.83-13.072h-2.903v15.908h1.994v-13.094l4.852 13.094h1.706z"/></g></g><g style="display:inherit"><g style="display:block"><path d="m179.448 282.896 4.875-13.094v13.094h1.972v-15.908h-2.814l-4.852 13.072-4.83-13.072h-2.903v15.908h1.994v-13.094l4.852 13.094h1.706z"/></g></g><g style="display:inherit"><g style="display:block"><path d="m365.832 282.896 4.875-13.094v13.094h1.972v-15.908h-2.814l-4.852 13.072-4.83-13.072h-2.903v15.908h1.994v-13.094l4.852 13.094h1.706z"/></g></g><g style="display:inherit"><g style="display:block"><path d="m412.428 282.896 4.875-13.094v13.094h1.972v-15.908h-2.814l-4.852 13.072-4.83-13.072h-2.903v15.908h1.994v-13.094l4.853 13.094h1.705z"/></g></g><g style="display:inherit"><g style="display:block"><path d="m528.918 282.896 4.875-13.094v13.094h1.972v-15.908h-2.814l-4.852 13.072-4.83-13.072h-2.903v15.908h1.994v-13.094l4.852 13.094h1.706z"/></g></g><g style="display:inherit"><g style="display:block"><path d="m575.514 282.896 4.875-13.094v13.094h1.972v-15.908h-2.814l-4.852 13.072-4.83-13.072h-2.903v15.908h1.994v-13.094l4.853 13.094h1.705z"/></g></g><g style="display:inherit"><g style="display:block"><path d="m319.236 309.296 4.875-13.094v13.094h1.972v-15.908h-2.814l-4.852 13.072-4.83-13.072h-2.903v15.908h1.994v-13.094l4.852 13.094h1.706z"/></g></g><g style="display:inherit"><g style="display:block"><path d="m389.13 309.296 4.875-13.094v13.094h1.972v-15.908h-2.814l-4.852 13.072-4.83-13.072h-2.903v15.908h1.994v-13.094l4.852 13.094h1.706z"/></g></g><g style="display:inherit"><g style="display:block"><path d="m435.726 309.296 4.875-13.094v13.094h1.972v-15.908h-2.814l-4.852 13.072-4.83-13.072h-2.903v15.908h1.994v-13.094l4.853 13.094h1.705z"/></g></g><g style="display:inherit"><g style="display:block"><path d="m482.322 309.296 4.875-13.094v13.094h1.972v-15.908h-2.814l-4.852 13.072-4.83-13.072h-2.903v15.908h1.994v-13.094l4.853 13.094h1.705z"/></g></g><g style="display:inherit"><g style="display:block"><path d="m319.236 335.696 4.875-13.094v13.094h1.972v-15.908h-2.814l-4.852 13.072-4.83-13.072h-2.903v15.908h1.994v-13.094l4.853 13.094h1.705z"/></g></g><g style="display:inherit"><g style="display:block"><path d="m365.832 335.696 4.875-13.094v13.094h1.972v-15.908h-2.814l-4.852 13.072-4.83-13.072h-2.903v15.908h1.994v-13.094l4.852 13.094h1.706z"/></g></g><g style="display:inherit"><g style="display:block"><path d="m435.726 335.696 4.875-13.094v13.094h1.972v-15.908h-2.814l-4.852 13.072-4.83-13.072h-2.903v15.908h1.994v-13.094l4.852 13.094h1.706z"/></g></g><g style="display:inherit"><g style="display:block"><path d="m505.62 335.696 4.875-13.094v13.094h1.972v-15.908h-2.814L504.8 332.86l-4.83-13.072h-2.903v15.908h1.994v-13.094l4.852 13.094h1.706z"/></g></g><g style="display:inherit"><g style="display:block"><path d="m295.938 362.096 4.875-13.094v13.094h1.972v-15.908h-2.814l-4.852 13.072-4.83-13.072h-2.903v15.908h1.994v-13.094l4.852 13.094h1.706z"/></g></g><g style="display:inherit"><g style="display:block"><path d="m319.236 362.096 4.875-13.094v13.094h1.972v-15.908h-2.814l-4.852 13.072-4.83-13.072h-2.903v15.908h1.994v-13.094l4.852 13.094h1.706z"/></g></g><g style="display:inherit"><g style="display:block"><path d="m342.534 362.096 4.875-13.094v13.094h1.972v-15.908h-2.814l-4.852 13.072-4.83-13.072h-2.903v15.908h1.994v-13.094l4.853 13.094h1.705z"/></g></g><g style="display:inherit"><g style="display:block"><path d="m389.13 362.096 4.875-13.094v13.094h1.972v-15.908h-2.814l-4.852 13.072-4.83-13.072h-2.903v15.908h1.994v-13.094l4.852 13.094h1.706z"/></g></g><g style="display:inherit"><g style="display:block"><path d="m412.428 362.096 4.875-13.094v13.094h1.972v-15.908h-2.814l-4.852 13.072-4.83-13.072h-2.903v15.908h1.994v-13.094l4.852 13.094h1.706z"/></g></g><g style="display:inherit"><g style="display:block"><path d="m482.322 362.096 4.875-13.094v13.094h1.972v-15.908h-2.814l-4.852 13.072-4.83-13.072h-2.903v15.908h1.994v-13.094l4.853 13.094h1.705z"/></g></g><g style="display:inherit"><g style="display:block"><path d="m505.62 362.096 4.875-13.094v13.094h1.972v-15.908h-2.814L504.8 359.26l-4.83-13.072h-2.903v15.908h1.994v-13.094l4.852 13.094h1.706z"/></g></g><g style="display:inherit"><g style="display:block"><path d="m552.216 362.096 4.875-13.094v13.094h1.972v-15.908h-2.814l-4.852 13.072-4.83-13.072h-2.903v15.908h1.994v-13.094l4.852 13.094h1.706z"/></g></g><g style="display:inherit"><g style="display:block"><path d="m575.514 362.096 4.875-13.094v13.094h1.972v-15.908h-2.814l-4.852 13.072-4.83-13.072h-2.903v15.908h1.994v-13.094l4.853 13.094h1.705z"/></g></g><g style="display:inherit"><g style="display:block"><path d="m389.13 388.496 4.875-13.094v13.094h1.972v-15.908h-2.814l-4.852 13.072-4.83-13.072h-2.903v15.908h1.994v-13.094l4.852 13.094h1.706z"/></g></g><g style="display:inherit"><g style="display:block"><path d="m505.62 388.496 4.875-13.094v13.094h1.972v-15.908h-2.814L504.8 385.66l-4.83-13.072h-2.903v15.908h1.994v-13.094l4.853 13.094h1.705z"/></g></g><g style="display:inherit"><g style="display:block"><path d="m552.216 388.496 4.875-13.094v13.094h1.972v-15.908h-2.814l-4.852 13.072-4.83-13.072h-2.903v15.908h1.994v-13.094l4.853 13.094h1.705z"/></g></g><g style="display:inherit"><g style="display:block"><path d="m202.746 414.896 4.875-13.094v13.094h1.972v-15.908h-2.814l-4.852 13.072-4.83-13.072h-2.903v15.908h1.994v-13.094l4.853 13.094h1.705z"/></g></g><g style="display:inherit"><g style="display:block"><path d="m226.044 414.896 4.875-13.094v13.094h1.972v-15.908h-2.814l-4.852 13.072-4.83-13.072h-2.903v15.908h1.994v-13.094l4.853 13.094h1.705z"/></g></g><g style="display:inherit"><g style="display:block"><path d="m249.342 414.896 4.875-13.094v13.094h1.972v-15.908h-2.814l-4.852 13.072-4.83-13.072h-2.903v15.908h1.994v-13.094l4.853 13.094h1.705z"/></g></g><g style="display:inherit"><g style="display:block"><path d="m272.64 414.896 4.875-13.094v13.094h1.972v-15.908h-2.814l-4.852 13.072-4.83-13.072h-2.903v15.908h1.994v-13.094l4.852 13.094h1.706z"/></g></g><g style="display:inherit"><g style="display:block"><path d="m319.236 414.896 4.875-13.094v13.094h1.972v-15.908h-2.814l-4.852 13.072-4.83-13.072h-2.903v15.908h1.994v-13.094l4.852 13.094h1.706z"/></g></g><g style="display:inherit"><g style="display:block"><path d="m342.534 414.896 4.875-13.094v13.094h1.972v-15.908h-2.814l-4.852 13.072-4.83-13.072h-2.903v15.908h1.994v-13.094l4.853 13.094h1.705z"/></g></g><g style="display:inherit"><g style="display:block"><path d="m365.832 414.896 4.875-13.094v13.094h1.972v-15.908h-2.814l-4.852 13.072-4.83-13.072h-2.903v15.908h1.994v-13.094l4.853 13.094h1.705z"/></g></g><g style="display:inherit"><g style="display:block"><path d="m435.726 414.896 4.875-13.094v13.094h1.972v-15.908h-2.814l-4.852 13.072-4.83-13.072h-2.903v15.908h1.994v-13.094l4.852 13.094h1.706z"/></g></g><g style="display:inherit"><g style="display:block"><path d="m459.024 414.896 4.875-13.094v13.094h1.972v-15.908h-2.814l-4.852 13.072-4.83-13.072h-2.903v15.908h1.994v-13.094l4.853 13.094h1.705z"/></g></g><g style="display:inherit"><g style="display:block"><path d="m505.62 414.896 4.875-13.094v13.094h1.972v-15.908h-2.814L504.8 412.06l-4.83-13.072h-2.903v15.908h1.994v-13.094l4.852 13.094h1.706z"/></g></g><g style="display:inherit"><g style="display:block"><path d="m575.514 414.896 4.875-13.094v13.094h1.972v-15.908h-2.814l-4.852 13.072-4.83-13.072h-2.903v15.908h1.994v-13.094l4.853 13.094h1.705z"/></g></g><g style="display:inherit"><g style="display:block"><path d="m226.044 441.296 4.875-13.094v13.094h1.972v-15.908h-2.814l-4.852 13.072-4.83-13.072h-2.903v15.908h1.994v-13.094l4.853 13.094h1.705z"/></g></g><g style="display:inherit"><g style="display:block"><path d="m249.342 441.296 4.875-13.094v13.094h1.972v-15.908h-2.814l-4.852 13.072-4.83-13.072h-2.903v15.908h1.994v-13.094l4.853 13.094h1.705z"/></g></g><g style="display:inherit"><g style="display:block"><path d="m272.64 441.296 4.875-13.094v13.094h1.972v-15.908h-2.814l-4.852 13.072-4.83-13.072h-2.903v15.908h1.994v-13.094l4.852 13.094h1.706z"/></g></g><g style="display:inherit"><g style="display:block"><path d="m365.832 441.296 4.875-13.094v13.094h1.972v-15.908h-2.814l-4.852 13.072-4.83-13.072h-2.903v15.908h1.994v-13.094l4.852 13.094h1.706z"/></g></g><g style="display:inherit"><g style="display:block"><path d="m459.024 441.296 4.875-13.094v13.094h1.972v-15.908h-2.814l-4.852 13.072-4.83-13.072h-2.903v15.908h1.994v-13.094l4.853 13.094h1.705z"/></g></g><g style="display:inherit"><g style="display:block"><path d="m505.62 441.296 4.875-13.094v13.094h1.972v-15.908h-2.814L504.8 438.46l-4.83-13.072h-2.903v15.908h1.994v-13.094l4.852 13.094h1.706z"/></g></g><g style="display:inherit"><g style="display:block"><path d="m552.216 441.296 4.875-13.094v13.094h1.972v-15.908h-2.814l-4.852 13.072-4.83-13.072h-2.903v15.908h1.994v-13.094l4.853 13.094h1.705z"/></g></g></g></svg>